{
  "source": "C:\\Users\\Peter\\Desktop\\stuff\\MIUN\\quantitative_research\\video_compression\\videos\\BVI-HD\\BVI-HD_CDVL_videos\\ORIG\\PlasmaSlowRandom_1920x1080_60fps.mp4",
  "output": "C:\\Users\\Peter\\Desktop\\stuff\\MIUN\\quantitative_research\\video_compression\\compressed_videos\\BVI-HD\\vp9\\1\\PlasmaSlowRandom_1920x1080_60fps_vp9.webm",
  "codec": "vp9",
  "ok": "Input #0, mov,mp4,m4a,3gp,3g2,mj2, from 'C:\\Users\\Peter\\Desktop\\stuff\\MIUN\\quantitative_research\\video_compression\\videos\\BVI-HD\\BVI-HD_CDVL_videos\\ORIG\\PlasmaSlowRandom_1920x1080_60fps.mp4':\n  Metadata:\n    major_brand     : isom\n    minor_version   : 512\n    compatible_brands: isomiso2avc1mp41\n    encoder         : Lavf54.28.101\n  Duration: 00:00:05.00, start: 0.000000, bitrate: 23030 kb/s\n  Stream #0:0[0x1](und): Video: h264 (High 4:4:4 Predictive) (avc1 / 0x31637661), yuv420p(progressive), 1920x1080, 23026 kb/s, 60 fps, 60 tbr, 60 tbn (default)\n    Metadata:\n      handler_name    : VideoHandler\n      vendor_id       : [0][0][0][0]\n[out#0/webm @ 0000021f79505040] Codec AVOption b:a (set bitrate (in bits/s)) has not been used for any stream. The most likely reason is either wrong type (e.g. a video option with no video streams) or that it is a private option of some decoder which was not actually used for any stream.\nStream mapping:\n  Stream #0:0 -> #0:0 (h264 (native) -> vp9 (libvpx-vp9))\nPress [q] to stop, [?] for help\n[libvpx-vp9 @ 0000021f78f94a00] v1.15.2-100-g40561f514\nOutput #0, webm, to 'C:\\Users\\Peter\\Desktop\\stuff\\MIUN\\quantitative_research\\video_compression\\compressed_videos\\BVI-HD\\vp9\\1\\PlasmaSlowRandom_1920x1080_60fps_vp9.webm':\n  Metadata:\n    major_brand     : isom\n    minor_version   : 512\n    compatible_brands: isomiso2avc1mp41\n    encoder         : Lavf62.3.100\n  Stream #0:0(und): Video: vp9, yuv420p(tv, progressive), 1920x1080, q=2-31, 1000 kb/s, 60 fps, 1k tbn (default)\n    Metadata:\n      encoder         : Lavc62.11.100 libvpx-vp9\n      handler_name    : VideoHandler\n      vendor_id       : [0][0][0][0]\n    Side data:\n      cpb: bitrate max/min/avg: 0/0/0 buffer size: 1000000 vbv_delay: N/A\nframe=    6 fps=0.0 q=49.0 size=       1KiB time=00:00:00.10 bitrate=  50.6kbits/s speed=0.196x elapsed=0:00:00.51    \nframe=   17 fps= 17 q=44.0 size=       1KiB time=00:00:00.28 bitrate=  17.9kbits/s speed=0.276x elapsed=0:00:01.02    \nframe=   26 fps= 17 q=44.0 size=       1KiB time=00:00:00.43 bitrate=  11.7kbits/s speed=0.282x elapsed=0:00:01.53    \nframe=   36 fps= 17 q=45.0 size=       1KiB time=00:00:00.60 bitrate=   8.4kbits/s speed=0.29x elapsed=0:00:02.07    \nframe=   46 fps= 18 q=47.0 size=       1KiB time=00:00:00.76 bitrate=   6.6kbits/s speed=0.296x elapsed=0:00:02.58    \nframe=   57 fps= 18 q=47.0 size=       1KiB time=00:00:00.95 bitrate=   5.3kbits/s speed=0.307x elapsed=0:00:03.09    \nframe=   66 fps= 18 q=48.0 size=       1KiB time=00:00:01.10 bitrate=   4.6kbits/s speed=0.304x elapsed=0:00:03.61    \nframe=   77 fps= 19 q=48.0 size=       1KiB time=00:00:01.26 bitrate=   4.0kbits/s speed=0.307x elapsed=0:00:04.12    \nframe=   87 fps= 19 q=46.0 size=       1KiB time=00:00:01.45 bitrate=   3.5kbits/s speed=0.309x elapsed=0:00:04.69    \nframe=   97 fps= 19 q=25.0 size=       1KiB time=00:00:01.61 bitrate=   3.1kbits/s speed=0.311x elapsed=0:00:05.20    \nframe=  108 fps= 19 q=49.0 size=       1KiB time=00:00:01.78 bitrate=   2.8kbits/s speed=0.311x elapsed=0:00:05.73    \nframe=  115 fps= 18 q=49.0 size=       1KiB time=00:00:01.91 bitrate=   2.6kbits/s speed=0.303x elapsed=0:00:06.32    \nframe=  122 fps= 18 q=50.0 size=       1KiB time=00:00:02.03 bitrate=   2.5kbits/s speed=0.297x elapsed=0:00:06.85    \nframe=  130 fps= 18 q=53.0 size=     166KiB time=00:00:02.16 bitrate= 627.2kbits/s speed=0.294x elapsed=0:00:07.38    \nframe=  140 fps= 18 q=27.0 size=     166KiB time=00:00:02.33 bitrate= 582.4kbits/s speed=0.294x elapsed=0:00:07.92    \nframe=  149 fps= 18 q=48.0 size=     166KiB time=00:00:02.48 bitrate= 547.3kbits/s speed=0.294x elapsed=0:00:08.44    \nframe=  157 fps= 18 q=48.0 size=     166KiB time=00:00:02.60 bitrate= 522.7kbits/s speed=0.29x elapsed=0:00:08.95    \nframe=  165 fps= 17 q=47.0 size=     166KiB time=00:00:02.75 bitrate= 494.2kbits/s speed=0.29x elapsed=0:00:09.47    \nframe=  173 fps= 17 q=49.0 size=     166KiB time=00:00:02.88 bitrate= 471.3kbits/s speed=0.288x elapsed=0:00:10.00    \nframe=  179 fps= 17 q=48.0 size=     166KiB time=00:00:02.98 bitrate= 455.5kbits/s speed=0.284x elapsed=0:00:10.51    \nframe=  187 fps= 17 q=47.0 size=     166KiB time=00:00:03.11 bitrate= 436.0kbits/s speed=0.282x elapsed=0:00:11.03    \nframe=  198 fps= 17 q=48.0 size=     166KiB time=00:00:03.28 bitrate= 413.9kbits/s speed=0.284x elapsed=0:00:11.55    \nframe=  205 fps= 17 q=48.0 size=     166KiB time=00:00:03.41 bitrate= 397.8kbits/s speed=0.282x elapsed=0:00:12.09    \nframe=  213 fps= 17 q=49.0 size=     166KiB time=00:00:03.55 bitrate= 382.8kbits/s speed=0.281x elapsed=0:00:12.64    \nframe=  222 fps= 17 q=47.0 size=     166KiB time=00:00:03.70 bitrate= 367.3kbits/s speed=0.28x elapsed=0:00:13.19    \nframe=  229 fps= 17 q=52.0 size=     166KiB time=00:00:03.81 bitrate= 356.1kbits/s speed=0.278x elapsed=0:00:13.74    \nframe=  237 fps= 17 q=50.0 size=     166KiB time=00:00:03.95 bitrate= 344.1kbits/s speed=0.277x elapsed=0:00:14.25    \nframe=  246 fps= 17 q=26.0 size=     166KiB time=00:00:04.10 bitrate= 331.5kbits/s speed=0.278x elapsed=0:00:14.76    \nframe=  255 fps= 17 q=46.0 size=     166KiB time=00:00:04.25 bitrate= 319.8kbits/s speed=0.278x elapsed=0:00:15.28    \nframe=  265 fps= 17 q=47.0 size=     256KiB time=00:00:04.41 bitrate= 474.8kbits/s speed=0.279x elapsed=0:00:15.82    \nframe=  272 fps= 17 q=49.0 size=     256KiB time=00:00:04.53 bitrate= 462.6kbits/s speed=0.278x elapsed=0:00:16.33    \nframe=  276 fps= 16 q=47.0 size=     256KiB time=00:00:04.60 bitrate= 455.9kbits/s speed=0.273x elapsed=0:00:16.84    \nframe=  276 fps= 16 q=47.0 size=     256KiB time=00:00:04.60 bitrate= 455.9kbits/s speed=0.265x elapsed=0:00:17.36    \nframe=  276 fps= 15 q=47.0 size=     256KiB time=00:00:04.60 bitrate= 455.9kbits/s speed=0.257x elapsed=0:00:17.87    \n[out#0/webm @ 0000021f79505040] video:394KiB audio:0KiB subtitle:0KiB other streams:0KiB global headers:0KiB muxing overhead: 0.699394%\nframe=  300 fps= 17 q=48.0 Lsize=     397KiB time=00:00:05.00 bitrate= 650.8kbits/s speed=0.278x elapsed=0:00:17.97    \n",
  "seconds": 18.420938968658447,
  "probe_out": {}
}